<svg width="23" height="23" viewBox="0 0 23 23" fill="none" xmlns="http://www.w3.org/2000/svg">
<path fill-rule="evenodd" clip-rule="evenodd" d="M22.8592 21.5037L16.1779 14.8227C17.4452 13.2582 18.2079 11.2694 18.2079 9.10356C18.2079 4.0839 14.1238 -0.000207 9.10395 -0.000207C4.08397 -0.000207 -2.3e-05 4.0839 -2.3e-05 9.10356C-2.3e-05 14.1237 4.08406 18.2078 9.10395 18.2078C11.2695 18.2078 13.2584 17.4449 14.8229 16.1779L21.5041 22.8589C21.6913 23.0463 21.9945 23.0463 22.1817 22.8589L22.8592 22.1813C23.0463 21.9944 23.0463 21.6911 22.8592 21.5037ZM9.10395 16.2914C5.14064 16.2914 1.91657 13.067 1.91657 9.10356C1.91657 5.14057 5.14064 1.9162 9.10395 1.9162C13.0674 1.9162 16.2913 5.14057 16.2913 9.10356C16.2913 13.067 13.0674 16.2914 9.10395 16.2914Z" fill="white"/>
</svg>
